# xmcd
#
# Track frame offsets:
#	150
#	13660
#	26112
#	40885
#	55727
#	66757
#	78720
#	102247
#	124762
#	143862
#	155485
#	169882
#	183237
#	194947
#	206800
#	229540
#
# Disc length: 3250
#
# Revision: 2
# Processed by: cddbd v1.5.1PL0 Copyright (c) Steve Scherf et al.
# Submitted via: CDex 1.50beta9
# Normalized: r0:DSETVAR1,TDELIM( - ),TSWAP
#
DISCID=e60cb010
DTITLE=Various Artist - The Best Of FM Golden Jazz
DYEAR=2002
DGENRE=Jazz
TTITLE0=Fats Waller - A Thousand Dreams Of You
TTITLE1=Dinah Washington - Teach Me Tonight
TTITLE2=Nat King Cole and Oscar Peterson - Tenderly
TTITLE3=Benny Goodman Orchestra - Frankie And Johnny
TTITLE4=Dinah Washington - Come Rain Or Come Shine
TTITLE5=Nat King Cole - Unforgettable
TTITLE6=Zoot Sims - The Man I Love
TTITLE7=Dinah Washington - Easy Living
TTITLE8=Bill Evans - Autumn Leaves
TTITLE9=Peggy Lee - I Can't Give You Anything But Love
TTITLE10=Coleman Hawkins - I Only Have Eyes For You
TTITLE11=Billie Holiday - Summertime
TTITLE12=Chick Webb and Ella Fitzgerald - Sing Me A Swing Song (And Let Me Dance)
TTITLE13=Doris Day - Sentimental Journey
TTITLE14=Louis Armstrong - La Vie En Rose
TTITLE15=Ethel Waters - Stormy Weather
EXTD=YEAR: 2002
EXTT0=
EXTT1=
EXTT2=
EXTT3=
EXTT4=
EXTT5=
EXTT6=
EXTT7=
EXTT8=
EXTT9=
EXTT10=
EXTT11=
EXTT12=
EXTT13=
EXTT14=
EXTT15=
PLAYORDER=
